<?xml version="1.0" encoding="UTF-8"?>
<svg version="1.1" xmlns="http://www.w3.org/2000/svg" width="187" height="270">
<path d="M0 0 C61.71 0 123.42 0 187 0 C187 89.1 187 178.2 187 270 C125.29 270 63.58 270 0 270 C0 180.9 0 91.8 0 0 Z " fill="#96613D" transform="translate(0,0)"/>
<path d="M0 0 C61.71 0 123.42 0 187 0 C187 89.1 187 178.2 187 270 C125.29 270 63.58 270 0 270 C0 180.9 0 91.8 0 0 Z M89 14 C88.58013054 16.71163778 88.58013054 16.71163778 89 19 C86 18 86 18 84.125 15.0625 C81.80978883 11.72587214 80.91515345 10.81945072 77 10 C72.51634497 10 70.56913832 10.53984561 67.0625 13.375 C64.74129979 16.4428283 64.90828661 18.67846043 65.1875 22.4375 C65.43067634 27.43612479 65.43067634 27.43612479 63.484375 29.984375 C61.37694027 31.73788939 59.19661505 33.36027328 57 35 C37.25046152 54.0800626 31.35110913 86.00283346 29.0625 112.1875 C28.40931609 118.24723592 26.80879065 121.72596683 23.0078125 126.44140625 C13.77182598 138.21099997 8.31836572 150.88100772 10 166 C11.71199207 173.00296347 13.9489399 179.43599755 17.8125 185.5625 C20.66108113 190.87985143 20.54623433 196.41175799 20.625 202.3125 C20.64796143 203.2806665 20.67092285 204.24883301 20.69458008 205.24633789 C20.64265846 210.01772737 20.61424609 212.24527176 17.5234375 216.04296875 C16.69070312 216.68878906 15.85796875 217.33460938 15 218 C13.14730079 221.70539842 13.53555511 225.95623313 14 230 C15.31117601 233.11326625 16.90609152 235.45304576 20 237 C21.37342831 237.0689472 22.75002102 237.08467708 24.125 237.0625 C26.043125 237.0315625 26.043125 237.0315625 28 237 C28.226875 237.556875 28.45375 238.11375 28.6875 238.6875 C34.30432475 248.58381028 45.4894588 252.51549104 55.84375 255.45214844 C84.9305275 262.84240305 121.86738499 263.49319808 149 249 C159.0773768 241.7741476 161.86932884 230.62039719 164 219 C164.87429785 213.20415795 165.21229878 207.54532652 165.25 201.6875 C165.270625 200.92888672 165.29125 200.17027344 165.3125 199.38867188 C165.42442589 181.914242 160.58280787 164.08917646 157.32861328 147.00683594 C156.79701429 144.21080672 156.26946475 141.41403441 155.7421875 138.6171875 C155.58176971 137.78267059 155.42135193 136.94815369 155.256073 136.08834839 C154.50607988 132.10477264 153.82087141 128.11441252 153.26660156 124.09863281 C153.16639709 123.38717102 153.06619263 122.67570923 152.96295166 121.94268799 C153.03141909 118.35249063 155.46199767 116.23370294 157.875 113.875 C167.32856879 103.69610511 176.87123836 90.14327545 177.4375 75.8125 C177.00767444 67.56766434 174.29249966 62.37546786 168.2265625 56.76171875 C161.12658051 51.1440137 153.86755907 50.3000866 145 50 C144.79375 49.21625 144.5875 48.4325 144.375 47.625 C139.6688482 35.21787253 131.757897 26.93288381 120 21 C114.95640587 18.84309319 110.54960596 17.57310723 105 18 C104.938125 17.071875 104.87625 16.14375 104.8125 15.1875 C104.30059509 11.87795768 104.30059509 11.87795768 101.75 10.125 C95.69562035 7.64820833 93.03451282 8.81276924 89 14 Z " fill="#FDFDFD" transform="translate(0,0)"/>
<path d="M0 0 C5.61 0 11.22 0 17 0 C17 1.98 17 3.96 17 6 C18.32 6.33 19.64 6.66 21 7 C21.20625 8.134375 21.4125 9.26875 21.625 10.4375 C24.19082732 20.47076958 31.80073972 28.26492143 40.49609375 33.50390625 C50.86472417 38.66511159 61.98818196 40.2402384 73.4375 40.3125 C74.5368689 40.32083862 74.5368689 40.32083862 75.65844727 40.3293457 C83.48882636 40.22532 91.53249486 38.63343652 98 34 C101.66978245 30.16138979 103.31553421 26.29349382 103.625 21 C103.33192102 15.70829626 101.51422132 11.93193238 98 8 C96.06588955 6.43731123 94.15931892 5.25541798 92 4 C92 3.67 92 3.34 92 3 C98.93 3.495 98.93 3.495 106 4 C107.61547315 14.96976186 108.33078491 25.6667498 108.25 36.75 C108.24756287 37.48547058 108.24512573 38.22094116 108.24261475 38.97869873 C108.18628363 53.52118604 107.77255805 67.89253501 104 82 C93.28231859 84.38945756 82.66620983 84.35279882 71.75 84.3125 C70.80779602 84.31167419 69.86559204 84.31084839 68.89483643 84.30999756 C51.43091738 84.27494056 34.33703254 83.05622842 17 81 C15.10964352 80.79439102 13.21904004 80.591032 11.328125 80.390625 C0.40723817 79.20361909 0.40723817 79.20361909 -2 78 C-2.05152404 70.42760186 -2.08607123 62.85525032 -2.10986328 55.28271484 C-2.11980192 52.71694246 -2.13335748 50.15118103 -2.15087891 47.58544922 C-2.2571939 31.5944235 -1.8212312 15.89419471 0 0 Z " fill="#F3EFD3" transform="translate(46,156)"/>
<path d="M0 0 C7.39163703 3.18565952 12.05201984 8.48888805 15.1875 15.75 C16.84362184 20.07431813 18 23.32634974 18 28 C17.01 28 16.02 28 15 28 C15 28.66 15 29.32 15 30 C15.98226562 30.22042969 15.98226562 30.22042969 16.984375 30.4453125 C28.49397618 33.2739433 38.98148056 38.00953881 47 47 C47 47.66 47 48.32 47 49 C44.69 48.67 42.38 48.34 40 48 C40.8353125 48.37125 40.8353125 48.37125 41.6875 48.75 C44.5624682 50.30403687 46.73830795 51.60906841 49 54 C48.8125 57.75 48.8125 57.75 48 61 C45.97815499 59.98907749 43.9706756 58.98350502 42 57.875 C39.75306697 56.73278744 39.75306697 56.73278744 36 57 C36.55429688 57.25394531 37.10859375 57.50789063 37.6796875 57.76953125 C38.40414062 58.11371094 39.12859375 58.45789063 39.875 58.8125 C40.59429687 59.14894531 41.31359375 59.48539063 42.0546875 59.83203125 C44 61 44 61 46 64 C37.72405776 71.46853324 31.07550209 72.56012212 20.0625 72.5 C18.85988525 72.49427979 17.65727051 72.48855957 16.41821289 72.48266602 C1.63583136 72.18731672 -10.97511088 68.83246078 -21.83203125 58.20703125 C-28.30329167 51.07447415 -29.6442604 44.61087388 -29.34765625 35.10546875 C-28.56930739 23.03966654 -22.26360314 10.71028439 -14 2 C-9.48550334 -1.00966444 -5.2857165 -0.79851065 0 0 Z " fill="#96613D" transform="translate(99,122)"/>
<path d="M0 0 C2.64233769 2.19257809 4.46669809 3.93339618 6 7 C6.99 7.33 7.98 7.66 9 8 C9.103125 6.88625 9.20625 5.7725 9.3125 4.625 C9.539375 3.42875 9.76625 2.2325 10 1 C13.22791555 -1.1519437 14.28400809 -1.20086443 18 -1 C17.21625 -0.4225 16.4325 0.155 15.625 0.75 C12.69177764 2.96968305 12.69177764 2.96968305 11 7 C14.3 7 17.6 7 21 7 C17.99559979 9.00293347 16.29006055 9.49271626 12.8125 10.125 C11.91144531 10.29257812 11.01039062 10.46015625 10.08203125 10.6328125 C9.39496094 10.75398438 8.70789063 10.87515625 8 11 C7.67 12.65 7.34 14.3 7 16 C6.01 16 5.02 16 4 16 C3.83564453 14.96939453 3.83564453 14.96939453 3.66796875 13.91796875 C3.50941406 13.01691406 3.35085937 12.11585937 3.1875 11.1875 C3.03667969 10.29417969 2.88585937 9.40085937 2.73046875 8.48046875 C1.92593737 5.74850392 1.2976243 4.65493219 -1 3 C-3.74617512 2.33560279 -6.24102889 2.40920161 -9 3 C-11.31350272 4.85200068 -11.31350272 4.85200068 -12 8 C-12.03873228 13.2675906 -10.88814439 18.09082458 -9 23 C-12 22 -12 22 -14 20 C-37.68171913 37.74515739 -43.55268697 71.0114562 -47.49560547 98.44873047 C-50.28457233 118.7388045 -52.0535049 139.11234557 -53.69335938 159.52319336 C-53.77354813 160.5124028 -53.85373688 161.50161224 -53.93635559 162.52079773 C-54.08671018 164.38378213 -54.23439911 166.24698431 -54.37895203 168.11042786 C-54.70462937 172.15507374 -55.17688537 176.02291503 -56 180 C-57.07663692 195.8674007 -57.88312907 214.81952196 -47.7578125 228.17578125 C-34.76702513 241.6573317 -12.80575839 244.95068005 5.00390625 245.3359375 C7.85706131 245.37586797 10.70910386 245.38214988 13.5625 245.375 C14.30712494 245.37512085 15.05174988 245.3752417 15.81893921 245.37536621 C27.95343413 245.34739943 39.26945286 244.26629867 51 241 C52.25683594 240.68804687 53.51367188 240.37609375 54.80859375 240.0546875 C62.74260777 237.91133297 69.15328155 235.43906096 73.7109375 228.33203125 C79.92978966 216.60721974 81.55638631 205.49149538 81.4375 192.375 C81.43243942 191.28770096 81.43243942 191.28770096 81.42727661 190.17843628 C81.33558796 176.48045233 79.76245114 163.42480469 77 150 C76.70746607 148.55753123 76.41533542 147.11498064 76.12353516 145.67236328 C74.86582121 139.47053242 73.60307993 133.27004092 72.28686523 127.08032227 C72.13585861 126.36694199 71.98485199 125.65356171 71.82926941 124.91856384 C71.41508336 122.96681635 70.99720792 121.01585284 70.57910156 119.06494141 C70 116 70 116 70 113 C68.68 112.67 67.36 112.34 66 112 C66.825 111.030625 67.65 110.06125 68.5 109.0625 C69.32371094 108.09376953 69.32371094 108.09376953 70.1640625 107.10546875 C71.38177286 105.70898814 72.62677919 104.3358204 73.8984375 102.98828125 C83.60214149 92.61337243 94.71356313 76.97448384 94.39453125 62.125 C93.47064657 57.14882906 90.54263988 52.54263988 87 49 C84.39716876 48.79468536 84.39716876 48.79468536 81.5 48.9375 C76.19602978 49.09801489 76.19602978 49.09801489 74 48 C73.375 45.4375 73.375 45.4375 73 43 C72.443125 43.10183594 71.88625 43.20367187 71.3125 43.30859375 C68.34461513 43.47403328 66.71246316 43.28662716 64 42 C61.12487454 37.80905135 59.05450128 33.33691944 56.87597656 28.75683594 C52.75593352 20.49378417 44.531132 15.0843014 36.06640625 11.89453125 C33.72122674 11.18598765 31.38817533 10.54394449 29 10 C29 9.01 29 8.02 29 7 C41.27541748 9.6604517 51.4539544 14.9435042 58.69140625 25.45703125 C61.40597963 29.81997208 63.68248701 33.99345062 65 39 C65.75023437 39.01417969 66.50046875 39.02835938 67.2734375 39.04296875 C77.55201065 39.52194508 85.54570184 42.41204164 92.59375 50.125 C96.45799622 55.27732829 97.64590373 60.86482239 97.40234375 67.24609375 C95.63389279 79.35053962 88.27835084 91.22579778 80.16015625 100.234375 C79.69569092 100.75378662 79.23122559 101.27319824 78.75268555 101.80834961 C77.453355 103.22695239 76.11444901 104.60901266 74.7734375 105.98828125 C70.96112332 112.46249763 74.8701513 123.04437668 76.25 130.15625 C76.46817383 131.29856079 76.68634766 132.44087158 76.91113281 133.61779785 C77.60414681 137.24583517 78.30151891 140.87301152 79 144.5 C79.92062345 149.28050255 80.83668785 154.06184588 81.75 158.84375 C81.96043945 159.92837524 82.17087891 161.01300049 82.38769531 162.13049316 C86.37422322 183.01164579 88.30691876 208.54382365 78 228 C77.66484375 228.64066406 77.3296875 229.28132812 76.984375 229.94140625 C70.84340153 239.95292286 58.7048834 242.81245041 48.02734375 245.515625 C43.38203649 246.62548646 38.73807416 247.41789375 34 248 C33.15953125 248.11085938 32.3190625 248.22171875 31.453125 248.3359375 C5.78857106 251.2134784 -25.17912212 249.21465894 -46.9375 233.9375 C-48.92612337 232.06939926 -50.54029174 230.30480252 -52 228 C-52 227.34 -52 226.68 -52 226 C-53.216875 226.103125 -54.43375 226.20625 -55.6875 226.3125 C-59.36567343 226.33206475 -59.87734417 226.09916854 -62.9375 223.625 C-66.62832978 218.92758028 -66.67175562 214.84875223 -66 209 C-64.68882399 205.88673375 -63.09390848 203.54695424 -60 202 C-59.10005886 187.56731753 -60.01338026 177.62249299 -67 165 C-71.08896392 155.45438423 -71.90650684 143.95471725 -68.03515625 134.1953125 C-63.88007624 125.38340697 -58.93737036 114.93737036 -52 108 C-51.67748767 106.21721827 -51.41096233 104.42425552 -51.16796875 102.62890625 C-50.93352051 100.94498779 -50.93352051 100.94498779 -50.69433594 99.22705078 C-50.44345215 97.41309814 -50.44345215 97.41309814 -50.1875 95.5625 C-46.18340606 67.97032475 -40.53180643 41.35043005 -20 21 C-19.08476563 20.35675781 -18.16953125 19.71351562 -17.2265625 19.05078125 C-14.74120958 17.20676195 -14.74120958 17.20676195 -14.6875 14.4140625 C-14.8421875 13.03347656 -14.8421875 13.03347656 -15 11.625 C-15.20103667 7.66775195 -15.21586205 5.46007273 -12.625 2.375 C-8.46781762 -1.38626025 -5.33211581 -1.5220024 0 0 Z " fill="#0E0B0A" transform="translate(80,11)"/>
<path d="M0 0 C9.11832238 4.63077105 15.10271157 12.70473395 18.42578125 22.19921875 C19.01359375 23.86984375 19.01359375 23.86984375 19.61328125 25.57421875 C20.69933876 30.4197061 21.08582499 35.25196059 21.42578125 40.19921875 C26.2786014 42.62562882 31.23348791 42.82306112 36.55078125 43.26171875 C38.34532282 43.41615654 40.13961054 43.57358095 41.93359375 43.734375 C42.7239502 43.80019775 43.51430664 43.86602051 44.32861328 43.93383789 C46.42578125 44.19921875 46.42578125 44.19921875 49.42578125 45.19921875 C51.06070036 57.42040289 51.7711787 69.44644768 51.74145508 81.77514648 C51.73829531 84.49959438 51.76187743 87.22295054 51.78710938 89.94726562 C51.83110431 102.55089513 50.76946581 114.8045702 48.42578125 127.19921875 C44.23811034 131.38688966 30.27540145 129.38145978 24.7109375 129.40234375 C22.89715858 129.41089386 22.89715858 129.41089386 21.04673767 129.4196167 C18.4892564 129.4290268 15.93176323 129.43558473 13.37426758 129.43945312 C9.55852463 129.44904223 5.74334859 129.48005595 1.92773438 129.51171875 C-19.77849363 129.60480157 -41.39247373 128.20194245 -62.57421875 123.19921875 C-63.57972693 113.56994481 -63.77213832 103.9935812 -63.76171875 94.32421875 C-63.76211151 93.54884766 -63.76250427 92.77347656 -63.76290894 91.97460938 C-63.73998614 53.8622883 -63.73998614 53.8622883 -60.57421875 41.19921875 C-53.97421875 41.19921875 -47.37421875 41.19921875 -40.57421875 41.19921875 C-40.26484375 38.69328125 -40.26484375 38.69328125 -39.94921875 36.13671875 C-37.76145813 23.19374333 -32.62896934 10.25160129 -21.82421875 2.19921875 C-15.31985241 -1.80346823 -7.3075407 -2.27321069 0 0 Z M-25.07421875 18.19921875 C-32.38954353 30.09860076 -36.47961392 42.19473973 -34.57421875 56.19921875 C-31.40042607 65.27556312 -24.0428288 71.52650229 -15.76171875 75.94921875 C-5.94467703 80.40775498 3.25288915 81.72327565 13.98828125 81.69921875 C15.14263672 81.72757812 16.29699219 81.7559375 17.48632812 81.78515625 C25.08161095 81.80238888 31.18498334 80.75784657 37.42578125 76.19921875 C39.16964722 74.13242729 39.16964722 74.13242729 40.42578125 72.19921875 C37.22587617 69.45644297 34.42078743 67.56893515 30.42578125 66.19921875 C34.70844318 66.68588488 37.10749973 67.4734875 40.42578125 70.19921875 C41.08578125 70.19921875 41.74578125 70.19921875 42.42578125 70.19921875 C43.36217335 66.89976284 43.36217335 66.89976284 43.42578125 63.19921875 C40.79580274 60.41895576 37.90628924 58.74611119 34.42578125 57.19921875 C36.73578125 57.52921875 39.04578125 57.85921875 41.42578125 58.19921875 C37.56304997 49.6276341 28.71397475 45.67656726 20.42578125 42.19921875 C16.79262649 41.02197079 13.15155519 40.03531763 9.42578125 39.19921875 C9.42578125 38.53921875 9.42578125 37.87921875 9.42578125 37.19921875 C10.41578125 37.19921875 11.40578125 37.19921875 12.42578125 37.19921875 C11.68476415 28.4922678 8.11296954 19.46475621 1.55859375 13.5 C-3.5497012 9.60060759 -7.61357513 8.54166924 -13.99609375 8.59765625 C-19.36157889 9.84960278 -22.24844543 13.72063463 -25.07421875 18.19921875 Z M-58.57421875 43.19921875 C-60.54041617 60.35855836 -60.81707675 77.31580476 -60.69921875 94.57421875 C-60.68915662 97.1718715 -60.68003655 99.76952808 -60.671875 102.3671875 C-60.65014601 108.64461672 -60.61693083 114.92189899 -60.57421875 121.19921875 C-55.12505669 122.3341149 -49.72129497 123.40658606 -44.18359375 124.015625 C-43.06082031 124.14001953 -41.93804687 124.26441406 -40.78125 124.39257812 C-39.64042969 124.51439453 -38.49960938 124.63621094 -37.32421875 124.76171875 C-36.19886719 124.88740234 -35.07351562 125.01308594 -33.9140625 125.14257812 C-19.51828918 126.71377396 -5.27816814 127.38576611 9.19433594 127.38452148 C12.05288325 127.38672037 14.91105112 127.40498369 17.76953125 127.42382812 C27.19238558 127.45174633 36.19776675 127.32163803 45.42578125 125.19921875 C45.91312358 122.78396241 46.39064416 120.36736202 46.86328125 117.94921875 C46.99798828 117.28664063 47.13269531 116.6240625 47.27148438 115.94140625 C49.40079231 104.93132618 49.61232831 93.82553808 49.61108398 82.64648438 C49.61326452 80.46594519 49.63148357 78.28591876 49.65039062 76.10546875 C49.68807601 66.29401574 48.81331689 56.91745257 47.42578125 47.19921875 C40.49578125 46.70421875 40.49578125 46.70421875 33.42578125 46.19921875 C35.61338045 48.38681795 37.81049222 50.56561015 40.05078125 52.69921875 C43.44929104 56.27659748 44.72958046 59.01015415 44.86328125 63.94921875 C44.70931823 69.45137084 43.34254552 73.27373118 39.42578125 77.19921875 C27.3538565 85.27395044 11.51125672 84.4981664 -2.32421875 82.13671875 C-14.74809714 79.28708319 -25.84157325 73.66855431 -33.12890625 62.90234375 C-35.60007505 58.74184487 -37.19723782 55.09997086 -37.57421875 50.19921875 C-38.89421875 49.86921875 -40.21421875 49.53921875 -41.57421875 49.19921875 C-41.57421875 47.21921875 -41.57421875 45.23921875 -41.57421875 43.19921875 C-47.18421875 43.19921875 -52.79421875 43.19921875 -58.57421875 43.19921875 Z " fill="#0A0806" transform="translate(104.57421875,112.80078125)"/>
<path d="M0 0 C12.27541748 2.6604517 22.4539544 7.9435042 29.69140625 18.45703125 C32.40597963 22.81997208 34.68248701 26.99345062 36 32 C36.75023437 32.01417969 37.50046875 32.02835938 38.2734375 32.04296875 C48.55201065 32.52194508 56.54570184 35.41204164 63.59375 43.125 C67.45799622 48.27732829 68.64590373 53.86482239 68.40234375 60.24609375 C66.63389279 72.35053962 59.27835084 84.22579778 51.16015625 93.234375 C50.69569092 93.75378662 50.23122559 94.27319824 49.75268555 94.80834961 C48.453355 96.22695239 47.11444901 97.60901266 45.7734375 98.98828125 C41.96112332 105.46249763 45.8701513 116.04437668 47.25 123.15625 C47.57726074 124.86971619 47.57726074 124.86971619 47.91113281 126.61779785 C48.60414681 130.24583517 49.30151891 133.87301152 50 137.5 C50.92062345 142.28050255 51.83668785 147.06184588 52.75 151.84375 C52.96043945 152.92837524 53.17087891 154.01300049 53.38769531 155.13049316 C57.37422322 176.01164579 59.30691876 201.54382365 49 221 C48.66484375 221.64066406 48.3296875 222.28132812 47.984375 222.94140625 C41.84340153 232.95292286 29.7048834 235.81245041 19.02734375 238.515625 C14.38203649 239.62548646 9.73807416 240.41789375 5 241 C4.15953125 241.11085938 3.3190625 241.22171875 2.453125 241.3359375 C-23.21142894 244.2134784 -54.17912212 242.21465894 -75.9375 226.9375 C-77.92612337 225.06939926 -79.54029174 223.30480252 -81 221 C-81 220.34 -81 219.68 -81 219 C-82.216875 219.103125 -83.43375 219.20625 -84.6875 219.3125 C-88.36567343 219.33206475 -88.87734417 219.09916854 -91.9375 216.625 C-95.61160369 211.94886803 -95.69543579 207.82662415 -95 202 C-93.1875 199.375 -93.1875 199.375 -91 198 C-90.01 198 -89.02 198 -88 198 C-88 198.99 -88 199.98 -88 201 C-87.34 201 -86.68 201 -86 201 C-85.67 200.01 -85.34 199.02 -85 198 C-84.78085938 199.05058594 -84.56171875 200.10117188 -84.3359375 201.18359375 C-82.06193968 211.49582372 -79.72069141 219.93890676 -70.6875 226.3125 C-53.90355757 236.43881193 -34.68926639 238.42323997 -15.4375 238.375 C-14.69287506 238.37512085 -13.94825012 238.3752417 -13.18106079 238.37536621 C-1.04656587 238.34739943 10.26945286 237.26629867 22 234 C23.25683594 233.68804687 24.51367188 233.37609375 25.80859375 233.0546875 C33.74260777 230.91133297 40.15328155 228.43906096 44.7109375 221.33203125 C50.92978966 209.60721974 52.55638631 198.49149538 52.4375 185.375 C52.43243942 184.28770096 52.43243942 184.28770096 52.42727661 183.17843628 C52.33558796 169.48045233 50.76245114 156.42480469 48 143 C47.70746607 141.55753123 47.41533542 140.11498064 47.12353516 138.67236328 C45.86582121 132.47053242 44.60307993 126.27004092 43.28686523 120.08032227 C43.13585861 119.36694199 42.98485199 118.65356171 42.82926941 117.91856384 C42.41508336 115.96681635 41.99720792 114.01585284 41.57910156 112.06494141 C41 109 41 109 41 106 C39.68 105.67 38.36 105.34 37 105 C37.825 104.030625 38.65 103.06125 39.5 102.0625 C40.32371094 101.09376953 40.32371094 101.09376953 41.1640625 100.10546875 C42.38177286 98.70898814 43.62677919 97.3358204 44.8984375 95.98828125 C54.60214149 85.61337243 65.71356313 69.97448384 65.39453125 55.125 C64.47064657 50.14882906 61.54263988 45.54263988 58 42 C55.39716876 41.79468536 55.39716876 41.79468536 52.5 41.9375 C47.19602978 42.09801489 47.19602978 42.09801489 45 41 C44.375 38.4375 44.375 38.4375 44 36 C43.443125 36.10183594 42.88625 36.20367187 42.3125 36.30859375 C39.34461513 36.47403328 37.71246316 36.28662716 35 35 C32.12487454 30.80905135 30.05450128 26.33691944 27.87597656 21.75683594 C23.75593352 13.49378417 15.531132 8.0843014 7.06640625 4.89453125 C4.72122674 4.18598765 2.38817533 3.54394449 0 3 C0 2.01 0 1.02 0 0 Z " fill="#15110F" transform="translate(109,18)"/>
<path d="M0 0 C12.35160707 2.05860118 22.53546442 7.72610644 31 17 C32.2734375 19.2734375 32.2734375 19.2734375 33 21 C27.37623926 28.63700053 22.39813586 35.07271178 13 38 C8.3960355 38.68005384 4.083888 39.06459496 -0.15625 36.8984375 C-4.821712 33.20165193 -7.42241 28.86985301 -8.3125 22.90625 C-8.79795302 14.28945881 -5.00293248 6.78969408 0 0 Z " fill="#5C2C2E" transform="translate(125,76)"/>
<path d="M0 0 C1.32 0.33 2.64 0.66 4 1 C3.34 1 2.68 1 2 1 C2.01160156 1.65484375 2.02320313 2.3096875 2.03515625 2.984375 C2.04417969 3.89703125 2.05320312 4.8096875 2.0625 5.75 C2.07410156 6.63171875 2.08570313 7.5134375 2.09765625 8.421875 C2.01521565 11.44249875 1.79439264 14.37882552 1.51367188 17.38476562 C0.94750711 24.06515088 0.77989569 30.72037423 0.68359375 37.421875 C0.66281265 38.64787415 0.64203156 39.87387329 0.62062073 41.13702393 C0.55585377 45.00796549 0.49658316 48.87896795 0.4375 52.75 C0.39424529 55.39323517 0.35062893 58.03646444 0.30664062 60.6796875 C0.2002484 67.11972951 0.09835437 73.55983049 0 80 C5.01264959 80.5547764 10.02567858 81.10595197 15.0390625 81.65405273 C16.73805965 81.84028156 18.43695653 82.0274279 20.13574219 82.21557617 C36.72095907 84.05130708 53.07492159 85.16769776 69.76855469 85.13037109 C72.62700673 85.12499623 75.48530261 85.13035577 78.34375 85.13671875 C80.20052117 85.13605804 82.05729225 85.13477703 83.9140625 85.1328125 C84.74878082 85.13483673 85.58349915 85.13686096 86.44351196 85.13894653 C93.05469561 85.11337025 99.34924211 84.55422982 106 84 C106.99 74.76 107.98 65.52 109 56 C110.485 56.495 110.485 56.495 112 57 C110.77419355 84.22580645 110.77419355 84.22580645 108 87 C100.51278398 88.25970941 92.85333802 88.17472089 85.28515625 88.203125 C83.47137733 88.21167511 83.47137733 88.21167511 81.62095642 88.22039795 C79.06347515 88.22980805 76.50598198 88.23636598 73.94848633 88.24023438 C70.13274338 88.24982348 66.31756734 88.2808372 62.50195312 88.3125 C40.79572512 88.40558282 19.18174502 87.0027237 -2 82 C-3.00550818 72.37072606 -3.19791957 62.79436245 -3.1875 53.125 C-3.18789276 52.34962891 -3.18828552 51.57425781 -3.18869019 50.77539062 C-3.16486076 11.15567875 -3.16486076 11.15567875 0 0 Z " fill="#100C08" transform="translate(44,154)"/>
<path d="M0 0 C0.98657409 2.95972226 1.0427392 4.31732653 0.77807617 7.34106445 C0.70437302 8.21660477 0.63066986 9.09214508 0.55473328 9.99421692 C0.42515984 11.41440376 0.42515984 11.41440376 0.29296875 12.86328125 C0.20751297 13.84685104 0.12205719 14.83042084 0.03401184 15.84379578 C-0.1488968 17.93299294 -0.33488139 20.02192272 -0.52368164 22.1105957 C-0.80787848 25.26126477 -1.08152769 28.41270935 -1.35351562 31.56445312 C-2.2774252 42.09526787 -3.3115711 52.55963363 -5 63 C-7.78836998 59.4521367 -9.48786613 55.80421612 -11.125 51.625 C-11.38925781 50.97789062 -11.65351563 50.33078125 -11.92578125 49.6640625 C-16.024918 39.34339331 -16.30487144 29.25781248 -12 19 C-8.62902844 12.25042594 -4.85831521 5.79302462 0 0 Z " fill="#925E3B" transform="translate(27,125)"/>
<path d="M0 0 C12.35160707 2.05860118 22.53546442 7.72610644 31 17 C32.2734375 19.2734375 32.2734375 19.2734375 33 21 C27.37623926 28.63700053 22.39813586 35.07271178 13 38 C8.3960355 38.68005384 4.083888 39.06459496 -0.15625 36.8984375 C-4.821712 33.20165193 -7.42241 28.86985301 -8.3125 22.90625 C-8.79795302 14.28945881 -5.00293248 6.78969408 0 0 Z M1 3 C-1.34594772 6.20447416 -1.34594772 6.20447416 -2 10 C-0.02 10.66 1.96 11.32 4 12 C4 12.66 4 13.32 4 14 C1.36 13.34 -1.28 12.68 -4 12 C-5.1577506 15.47325181 -5.06866652 18.36067448 -5 22 C-4.41992188 22.13535156 -3.83984375 22.27070312 -3.2421875 22.41015625 C2.95749468 24.11864952 6.52637382 26.54144457 10 32 C10.33 32.99 10.66 33.98 11 35 C17.00544215 34.69972789 20.72535927 31.96742836 25 28 C26.87359243 25.74265972 28.41362113 23.47871698 30 21 C28.52202738 17.32943063 26.52384523 15.58914217 23.375 13.25 C22.55773437 12.63640625 21.74046875 12.0228125 20.8984375 11.390625 C20.27195313 10.93171875 19.64546875 10.4728125 19 10 C18.15695313 10.49113281 18.15695313 10.49113281 17.296875 10.9921875 C14.73140036 12.11785494 13.03157723 12.2068111 10.25 12.125 C9.45078125 12.10695313 8.6515625 12.08890625 7.828125 12.0703125 C7.22484375 12.04710938 6.6215625 12.02390625 6 12 C6 11.34 6 10.68 6 10 C8.01822917 10.29296875 10.03645833 10.5859375 12.0546875 10.87890625 C14.08140667 11.1684297 14.08140667 11.1684297 16 10 C15.67 9.01 15.34 8.02 15 7 C12.55073228 5.74651832 12.55073228 5.74651832 9.625 4.8125 C8.64789063 4.46832031 7.67078125 4.12414062 6.6640625 3.76953125 C3.98180175 2.86124462 3.98180175 2.86124462 1 3 Z " fill="#060303" transform="translate(125,76)"/>
<path d="M0 0 C8.74048183 4.01375601 13.85540651 10.26124774 17.3359375 19.125 C19.37387949 25.18634678 20.76294727 30.7198535 20.3359375 37.125 C19.3459375 37.125 18.3559375 37.125 17.3359375 37.125 C17.03300781 36.0628125 16.73007813 35.000625 16.41796875 33.90625 C13.3457087 23.42289069 10.58346285 14.67533046 1.3359375 8.125 C-4.22472296 5.47126153 -9.61083359 5.36628466 -15.6640625 6.125 C-26.02953909 11.79667587 -30.46340312 25.47280551 -33.6640625 36.125 C-34.44165514 39.12197163 -35.08678364 42.08116599 -35.6640625 45.125 C-35.9940625 45.125 -36.3240625 45.125 -36.6640625 45.125 C-36.87922932 39.30245539 -36.30084258 34.49848625 -34.6015625 28.9375 C-34.26765503 27.83764771 -34.26765503 27.83764771 -33.92700195 26.71557617 C-30.63175395 16.37593505 -26.55548688 6.61117146 -16.6640625 1.125 C-16.02082031 0.75632812 -15.37757812 0.38765625 -14.71484375 0.0078125 C-9.98144836 -2.02980151 -4.81602281 -1.58180221 0 0 Z " fill="#E6E3C7" transform="translate(102.6640625,114.875)"/>
<path d="M0 0 C12.27541748 2.6604517 22.4539544 7.9435042 29.69140625 18.45703125 C32.40597963 22.81997208 34.68248701 26.99345062 36 32 C36.75023437 32.01417969 37.50046875 32.02835938 38.2734375 32.04296875 C48.55201065 32.52194508 56.54570184 35.41204164 63.59375 43.125 C67.45799622 48.27732829 68.64590373 53.86482239 68.40234375 60.24609375 C66.63422361 72.3482753 58.96995679 85.68092443 50 94 C50 89.24443921 51.673151 87.00851187 54.25 83.25 C55.0821892 81.99531723 55.91164643 80.7388179 56.73828125 79.48046875 C57.13354004 78.87895996 57.52879883 78.27745117 57.93603516 77.65771484 C62.56803601 70.44080668 66.62525472 61.75384722 65 53 C63.22486576 48.88221647 61.17972369 45.17972369 58 42 C55.39716876 41.79468536 55.39716876 41.79468536 52.5 41.9375 C47.19602978 42.09801489 47.19602978 42.09801489 45 41 C44.375 38.4375 44.375 38.4375 44 36 C43.1646875 36.15275391 43.1646875 36.15275391 42.3125 36.30859375 C39.34461513 36.47403328 37.71246316 36.28662716 35 35 C32.12487454 30.80905135 30.05450128 26.33691944 27.87597656 21.75683594 C23.75593352 13.49378417 15.531132 8.0843014 7.06640625 4.89453125 C4.72122674 4.18598765 2.38817533 3.54394449 0 3 C0 2.01 0 1.02 0 0 Z " fill="#0D0B0A" transform="translate(109,18)"/>
<path d="M0 0 C0 0.99 0 1.98 0 3 C0.66 3 1.32 3 2 3 C2.33 2.01 2.66 1.02 3 0 C3.32871094 1.57587891 3.32871094 1.57587891 3.6640625 3.18359375 C5.97970255 13.68466481 8.35254812 22.0579313 17.625 28.4375 C20.34840452 30.11454383 23.12446862 31.60126867 26 33 C25.67 33.99 25.34 34.98 25 36 C11.04632883 29.38894026 11.04632883 29.38894026 7 23 C7 22.34 7 21.68 7 21 C5.783125 21.103125 4.56625 21.20625 3.3125 21.3125 C-0.36567343 21.33206475 -0.87734417 21.09916854 -3.9375 18.625 C-7.61160369 13.94886803 -7.69543579 9.82662415 -7 4 C-4.72452676 0.70448703 -4.02629244 0 0 0 Z " fill="#0F0D0B" transform="translate(21,216)"/>
<path d="M0 0 C0.33 0 0.66 0 1 0 C1.10350532 7.81232449 0.85075695 15.49647138 0.16015625 23.27734375 C0.07374374 24.29172012 -0.01266876 25.3060965 -0.10169983 26.35121155 C-0.28339382 28.47141067 -0.46753283 30.59140161 -0.65405273 32.71118164 C-0.93890052 35.95344131 -1.21514665 39.19635222 -1.49023438 42.43945312 C-1.66876893 44.51046 -1.84778804 46.58142516 -2.02734375 48.65234375 C-2.10967758 49.6169603 -2.19201141 50.58157684 -2.27684021 51.57542419 C-2.35684769 52.47728958 -2.43685516 53.37915497 -2.51928711 54.30834961 C-2.58812607 55.09600204 -2.65696503 55.88365448 -2.72789001 56.69517517 C-3.01955684 59.16565027 -3.51016274 61.56202237 -4 64 C-4.14409736 66.2022394 -4.24590052 68.4074591 -4.31640625 70.61328125 C-4.35830078 71.86044922 -4.40019531 73.10761719 -4.44335938 74.39257812 C-4.50233398 76.33293945 -4.50233398 76.33293945 -4.5625 78.3125 C-4.60568359 79.62541016 -4.64886719 80.93832031 -4.69335938 82.29101562 C-4.79927227 85.52724288 -4.90134885 88.76354458 -5 92 C-5.66 92 -6.32 92 -7 92 C-7.66 91.34 -8.32 90.68 -9 90 C-9.66 90 -10.32 90 -11 90 C-10.67 89.01 -10.34 88.02 -10 87 C-9.01 86.505 -9.01 86.505 -8 86 C-7.21437782 73.40069214 -7.03834379 63.24962469 -13.37109375 52.09375 C-15.01778462 48.96622203 -15.626649 46.4916206 -16 43 C-15.34 43 -14.68 43 -14 43 C-11.69 48.28 -9.38 53.56 -7 59 C-4.72392067 47.19092475 -3.90614178 35.28601415 -2.9375 23.3125 C-2.59762004 19.12064714 -2.2517291 14.92935116 -1.90234375 10.73828125 C-1.82628403 9.77489334 -1.7502243 8.81150543 -1.67185974 7.81892395 C-1.59830765 6.93677719 -1.52475555 6.05463043 -1.44897461 5.14575195 C-1.38616806 4.36698196 -1.32336151 3.58821198 -1.25865173 2.7858429 C-1 1 -1 1 0 0 Z " fill="#040302" transform="translate(28,127)"/>
<path d="M0 0 C0.33 0.66 0.66 1.32 1 2 C1.61875 1.79375 2.2375 1.5875 2.875 1.375 C3.57625 1.25125 4.2775 1.1275 5 1 C7.45880752 3.45880752 7.18610647 4.13494091 7.25 7.5 C7.88664521 15.09583601 11.70671395 21.17642217 17.25 26.3125 C28.86414617 35.32874505 41.62001979 37.36290567 55.9152832 37.53417969 C56.80046631 37.55383789 57.68564941 37.57349609 58.59765625 37.59375 C59.39695557 37.60083984 60.19625488 37.60792969 61.01977539 37.61523438 C61.67324951 37.74220703 62.32672363 37.86917969 63 38 C63.66 38.99 64.32 39.98 65 41 C47.09356315 41.55380733 29.95587234 40.48164695 15.30078125 28.859375 C9.65484715 23.52140094 4.3860556 17.4010338 3.6875 9.4375 C3.790625 8.633125 3.89375 7.82875 4 7 C2.68 6.67 1.36 6.34 0 6 C0 4.02 0 2.04 0 0 Z " fill="#12100D" transform="translate(63,156)"/>
<path d="M0 0 C12.35160707 2.05860118 22.53546442 7.72610644 31 17 C32.2734375 19.2734375 32.2734375 19.2734375 33 21 C32.34 21.66 31.68 22.32 31 23 C30.34 23 29.68 23 29 23 C28.89365234 21.88044922 28.89365234 21.88044922 28.78515625 20.73828125 C27.77999167 17.23270728 26.36570304 16.29085712 23.4375 14.1875 C22.61121094 13.58292969 21.78492188 12.97835937 20.93359375 12.35546875 C20.29550781 11.90816406 19.65742188 11.46085937 19 11 C18.44828125 11.32742187 17.8965625 11.65484375 17.328125 11.9921875 C14.61219077 13.16787715 12.69448241 13.20248638 9.75 13.125 C8.85796875 13.10695313 7.9659375 13.08890625 7.046875 13.0703125 C6.03367188 13.03550781 6.03367188 13.03550781 5 13 C5.33 12.01 5.66 11.02 6 10 C9.3 10 12.6 10 16 10 C13.15163299 7.15163299 12.13102212 6.45627197 8.5 5.3125 C7.7265625 5.06113281 6.953125 4.80976562 6.15625 4.55078125 C3.88646839 3.87625579 3.88646839 3.87625579 1 4 C0.01 5.98 -0.98 7.96 -2 10 C-0.02 10.66 1.96 11.32 4 12 C4 12.66 4 13.32 4 14 C-1.75 13.125 -1.75 13.125 -4 12 C-4.33 15.3 -4.66 18.6 -5 22 C-5.66 22 -6.32 22 -7 22 C-7.33 22.99 -7.66 23.98 -8 25 C-8.62876675 15.25411545 -5.75371285 7.8086103 0 0 Z " fill="#0B0807" transform="translate(125,76)"/>
<path d="M0 0 C0.66 0 1.32 0 2 0 C2.57155647 14.35241794 1.85904977 30.05230098 -5 43 C-5.33515625 43.64066406 -5.6703125 44.28132813 -6.015625 44.94140625 C-10.76952443 52.69160145 -19.35022098 56.1676522 -27.7734375 58.5546875 C-30 59 -30 59 -34 59 C-34 58.34 -34 57.68 -34 57 C-33.01 56.70867187 -32.02 56.41734375 -31 56.1171875 C-18.38392284 52.39548562 -18.38392284 52.39548562 -9.296875 43.3359375 C-3.75998075 32.93410218 -1.62804852 22.47708841 -0.8125 10.8125 C-0.73064453 9.76513672 -0.64878906 8.71777344 -0.56445312 7.63867188 C-0.36684446 5.09300733 -0.17883541 2.54704011 0 0 Z " fill="#090706" transform="translate(163,196)"/>
<path d="M0 0 C3.81247372 0.29326721 6.3293354 0.50130068 9.4375 2.8125 C11 5 11 5 11 9 C12.65 9.33 14.3 9.66 16 10 C16 10.33 16 10.66 16 11 C12.04 11 8.08 11 4 11 C4 10.67 4 10.34 4 10 C1.69 9.67 -0.62 9.34 -3 9 C-2.60196439 6.11424181 -2.20990931 5.17810487 0.0625 3.25 C0.701875 2.8375 1.34125 2.425 2 2 C1.34 1.34 0.68 0.68 0 0 Z " fill="#100A06" transform="translate(94,9)"/>
<path d="M0 0 C2.07476964 3.11215447 2.71064913 5.32939866 3.5625 8.9375 C3.81128906 9.97777344 4.06007813 11.01804688 4.31640625 12.08984375 C4.54199219 13.05019531 4.76757812 14.01054687 5 15 C5.33075573 16.33397509 5.66289087 17.6676163 6 19 C3.8125 19.375 3.8125 19.375 1 19 C-2.53464957 15.7795415 -3.8020064 14.23196019 -4.5625 9.5 C-3.91152442 5.44948529 -2.50360898 3.20774901 0 0 Z " fill="#8D5B39" transform="translate(20,216)"/>
<path d="M0 0 C-1.0514964 3.12699911 -2.03013457 4.01906473 -4.87109375 5.81640625 C-16.19616357 11.36110089 -26.2929482 14.35688569 -39 15 C-39 14.01 -39 13.02 -39 12 C-38.07960938 11.91363281 -37.15921875 11.82726562 -36.2109375 11.73828125 C-24.24033602 10.40956887 -10.21144938 0 0 0 Z " fill="#1A1916" transform="translate(125,217)"/>
<path d="M0 0 C6.93 0.495 6.93 0.495 14 1 C14.33 5.95 14.66 10.9 15 16 C14.34 16 13.68 16 13 16 C13 17.65 13 19.3 13 21 C12.67 21 12.34 21 12 21 C11.90203125 20.34773438 11.8040625 19.69546875 11.703125 19.0234375 C10.4745378 11.84255714 8.92170386 7.07890467 2.75 2.6875 C1.8425 2.130625 0.935 1.57375 0 1 C0 0.67 0 0.34 0 0 Z " fill="#E7E3C8" transform="translate(138,159)"/>
<path d="M0 0 C5.43445998 0.6864581 10.22452295 2.30614115 15 5 C15 5.66 15 6.32 15 7 C9.65450281 8.12536783 2.06932075 9.53466037 -3 7 C-1.125 1.125 -1.125 1.125 0 0 Z " fill="#F0F0F0" transform="translate(126,79)"/>
<path d="M0 0 C5.44170274 0.38869305 8.20279686 2.11649679 12 6 C13.375 9.3125 13.375 9.3125 14 12 C8.7311573 11.58675744 5.77055562 10.77055562 2 7 C0.29194726 4.31591712 0 3.23830467 0 0 Z " fill="#C7717F" transform="translate(120,100)"/>
<path d="M0 0 C0.66 0 1.32 0 2 0 C-2.00589502 11.256565 -11.22487423 18.52426301 -21.5 23.9375 C-24 25 -24 25 -26 25 C-24.67227781 21.01683344 -23.0986833 20.7416091 -19.4375 18.8125 C-12.1377737 14.69448338 -6.89790756 9.86191927 -2.125 3 C-1.42375 2.01 -0.7225 1.02 0 0 Z " fill="#151412" transform="translate(143,207)"/>
<path d="M0 0 C0.99 0.33 1.98 0.66 3 1 C2.55883637 10.79847636 1.91433287 20.35399262 0 30 C-0.99 30.33 -1.98 30.66 -3 31 C-3 30.34 -3 29.68 -3 29 C-3.99 28.67 -4.98 28.34 -6 28 C-5.01 28 -4.02 28 -3 28 C-2.01 18.76 -1.02 9.52 0 0 Z " fill="#262019" transform="translate(153,210)"/>
<path d="M0 0 C-0.78375 0.5775 -1.5675 1.155 -2.375 1.75 C-5.30822236 3.96968305 -5.30822236 3.96968305 -7 8 C-3.7 8 -0.4 8 3 8 C-0.00440021 10.00293347 -1.70993945 10.49271626 -5.1875 11.125 C-6.08855469 11.29257812 -6.98960938 11.46015625 -7.91796875 11.6328125 C-8.60503906 11.75398438 -9.29210937 11.87515625 -10 12 C-10.33 13.65 -10.66 15.3 -11 17 C-11.99 17 -12.98 17 -14 17 C-14 14.69 -14 12.38 -14 10 C-12.68 9.67 -11.36 9.34 -10 9 C-9.731875 7.88625 -9.46375 6.7725 -9.1875 5.625 C-7.44010975 0.29086136 -5.2514258 -0.28386085 0 0 Z " fill="#070605" transform="translate(98,10)"/>
<path d="M0 0 C13.86 0.99 13.86 0.99 28 2 C27.01 2.495 27.01 2.495 26 3 C26 3.66 26 4.32 26 5 C17.22779709 5.3189892 8.68175521 4.11636806 0 3 C0 2.01 0 1.02 0 0 Z " fill="#1C1611" transform="translate(67,237)"/>
<path d="M0 0 C1.20220203 3.53094302 0.79532349 6.12898982 0.0625 9.75 C-0.13214844 10.73484375 -0.32679687 11.7196875 -0.52734375 12.734375 C-0.68332031 13.48203125 -0.83929688 14.2296875 -1 15 C-1.66 15 -2.32 15 -3 15 C-3 14.34 -3 13.68 -3 13 C-8.94 13 -14.88 13 -21 13 C-19 11 -19 11 -15.3046875 10.8046875 C-13.82799892 10.817991 -12.35137642 10.84185165 -10.875 10.875 C-10.12089844 10.88402344 -9.36679687 10.89304688 -8.58984375 10.90234375 C-6.72642746 10.9259313 -4.86317407 10.96180281 -3 11 C-2.86722656 10.28972656 -2.73445313 9.57945312 -2.59765625 8.84765625 C-2.42105469 7.92855469 -2.24445313 7.00945312 -2.0625 6.0625 C-1.80146484 4.68771484 -1.80146484 4.68771484 -1.53515625 3.28515625 C-1 1 -1 1 0 0 Z " fill="#020101" transform="translate(67,143)"/>
<path d="M0 0 C0.33 0 0.66 0 1 0 C1.33745354 2.39531756 1.6700829 4.79114268 2 7.1875 C2.14308594 8.19780273 2.14308594 8.19780273 2.2890625 9.22851562 C2.78324613 12.84664577 3.11346131 16.34796401 3 20 C2.34 20 1.68 20 1 20 C1 24.95 1 29.9 1 35 C0.67 35 0.34 35 0 35 C-0.16748075 30.33712319 -0.32805376 25.67407963 -0.48217773 21.01074219 C-0.53560756 19.42376271 -0.59093771 17.83684605 -0.64819336 16.25 C-0.73007724 13.97149196 -0.80516524 11.69284678 -0.87890625 9.4140625 C-0.90594131 8.70255035 -0.93297638 7.99103821 -0.96083069 7.25796509 C-1.11387171 2.22774341 -1.11387171 2.22774341 0 0 Z " fill="#241C17" transform="translate(162,176)"/>
<path d="M0 0 C2.10409639 -0.02701408 4.20829178 -0.04640223 6.3125 -0.0625 C7.48425781 -0.07410156 8.65601563 -0.08570313 9.86328125 -0.09765625 C13 0 13 0 16 1 C16.33 4.63 16.66 8.26 17 12 C16.01 12.66 15.02 13.32 14 14 C14 10.37 14 6.74 14 3 C13.07316406 2.95101562 12.14632812 2.90203125 11.19140625 2.8515625 C9.99386719 2.77679688 8.79632813 2.70203125 7.5625 2.625 C6.36753906 2.55539063 5.17257813 2.48578125 3.94140625 2.4140625 C2.97074219 2.27742187 2.00007812 2.14078125 1 2 C0.67 1.34 0.34 0.68 0 0 Z " fill="#0E0C09" transform="translate(138,157)"/>
<path d="M0 0 C3.0625 0.3125 3.0625 0.3125 4.9375 1.6875 C6.0625 3.3125 6.0625 3.3125 6.0625 5.3125 C0.1225 5.8075 0.1225 5.8075 -5.9375 6.3125 C-4.47848361 0.47643443 -4.47848361 0.47643443 0 0 Z " fill="#925E3B" transform="translate(96.9375,11.6875)"/>
<path d="M0 0 C0.99 0.66 1.98 1.32 3 2 C2.49339844 3.35931641 2.49339844 3.35931641 1.9765625 4.74609375 C-0.47490464 11.44157482 -2.66822473 17.97791219 -4 25 C-4.33 25 -4.66 25 -5 25 C-5.28152915 18.80635868 -4.38556756 13.88093233 -2.5 8 C-2.26152344 7.22527344 -2.02304688 6.45054687 -1.77734375 5.65234375 C-1.19486803 3.76512242 -0.59884697 1.88209049 0 0 Z " fill="#D9D5BC" transform="translate(71,135)"/>
<path d="M0 0 C1.25549405 3.76648214 0.51188775 5.06230548 -0.8125 8.75 C-2.35331941 13.14320136 -3.77537797 17.50971922 -5 22 C-5.33 22 -5.66 22 -6 22 C-6.48717189 14.57062873 -5.16605999 8.75965362 -2 2 C-1.34 1.34 -0.68 0.68 0 0 Z " fill="#0D0C0A" transform="translate(74,138)"/>
<path d="M0 0 C1.31092543 3.9327763 0.31783226 5.25253203 -1.3125 9 C-1.76238281 10.051875 -2.21226563 11.10375 -2.67578125 12.1875 C-4 15 -4 15 -6 18 C-6.66 18 -7.32 18 -8 18 C-6.3437464 12.16199972 -4.672587 6.46137344 -2 1 C-1.34 0.67 -0.68 0.34 0 0 Z " fill="#120F0C" transform="translate(74,126)"/>
<path d="M0 0 C0.66 0 1.32 0 2 0 C2 5.94 2 11.88 2 18 C2.99 18.33 3.98 18.66 5 19 C4.67 19.66 4.34 20.32 4 21 C2.68 20.67 1.36 20.34 0 20 C0 13.4 0 6.8 0 0 Z " fill="#000000" transform="translate(42,216)"/>
<path d="M0 0 C0.66 0 1.32 0 2 0 C2.50688605 2.54046458 3.00566874 5.08208876 3.5 7.625 C3.64308594 8.33785156 3.78617188 9.05070313 3.93359375 9.78515625 C4.73049426 13.92144935 5.16034056 17.76433679 5 22 C4.34 22 3.68 22 3 22 C2.49465273 19.27172635 1.99556155 16.54255306 1.5 13.8125 C1.35691406 13.04357422 1.21382812 12.27464844 1.06640625 11.48242188 C0.36761285 7.60578227 -0.19039017 3.958529 0 0 Z " fill="#040303" transform="translate(157,156)"/>
<path d="M0 0 C0.33 0.66 0.66 1.32 1 2 C1.61875 1.79375 2.2375 1.5875 2.875 1.375 C3.57625 1.25125 4.2775 1.1275 5 1 C7 3 7 3 7.1953125 4.9453125 C7.13020833 6.96354167 7.06510417 8.98177083 7 11 C6.01 11 5.02 11 4 11 C4 9.68 4 8.36 4 7 C2.68 6.67 1.36 6.34 0 6 C0 4.02 0 2.04 0 0 Z " fill="#221E19" transform="translate(63,156)"/>
<path d="M0 0 C0.99 0.33 1.98 0.66 3 1 C2.38241446 2.9606842 1.75568655 4.91849063 1.125 6.875 C0.77695313 7.96554688 0.42890625 9.05609375 0.0703125 10.1796875 C-1 13 -1 13 -3 15 C-3.66 15 -4.32 15 -5 15 C-3.33333333 10 -1.66666667 5 0 0 Z " fill="#120F0C" transform="translate(160,224)"/>
<path d="M0 0 C1.32830615 3.98491845 0.23204404 5.40048548 -1.4375 9.1875 C-1.91058594 10.27417969 -2.38367188 11.36085938 -2.87109375 12.48046875 C-3.42990234 13.72763672 -3.42990234 13.72763672 -4 15 C-4.99 15 -5.98 15 -7 15 C-5.46412283 10.27422409 -3.87228255 5.60269461 -2 1 C-1.34 0.67 -0.68 0.34 0 0 Z " fill="#130F0C" transform="translate(175,81)"/>
<path d="M0 0 C0 3.54016293 -0.73358567 4.41055605 -2.8125 7.1875 C-3.59560547 8.26064453 -3.59560547 8.26064453 -4.39453125 9.35546875 C-4.92433594 9.89816406 -5.45414063 10.44085938 -6 11 C-6.99 11 -7.98 11 -9 11 C-8.67 11.66 -8.34 12.32 -8 13 C-9.32 12.67 -10.64 12.34 -12 12 C-8.32167983 7.47384007 -4.58913637 3.60575001 0 0 Z " fill="#1C1714" transform="translate(158,111)"/>
<path d="M0 0 C2.1875 2.9375 2.1875 2.9375 4 6 C4.66 6.66 5.32 7.32 6 8 C3.6875 8.3125 3.6875 8.3125 1 8 C0.54625 7.21625 0.0925 6.4325 -0.375 5.625 C-1.85861438 2.61786687 -1.85861438 2.61786687 -5.6875 1.6875 C-6.780625 1.460625 -7.87375 1.23375 -9 1 C-5.67989717 -1.09043512 -3.68497508 -1.47399003 0 0 Z " fill="#1E1A17" transform="translate(82,12)"/>
<path d="M0 0 C0.33 0 0.66 0 1 0 C1.10251672 5.12583611 1.03590199 9.94997778 0 15 C-0.66 15 -1.32 15 -2 15 C-2.21755666 9.5610835 -2.10428384 5.12919186 0 0 Z " fill="#090706" transform="translate(31,104)"/>
<path d="M0 0 C2.12438339 -0.08078641 4.2496323 -0.13909141 6.375 -0.1875 C7.55835937 -0.22230469 8.74171875 -0.25710937 9.9609375 -0.29296875 C11.46527344 -0.14794922 11.46527344 -0.14794922 13 0 C13.66 0.99 14.32 1.98 15 3 C11.04 3 7.08 3 3 3 C3 2.34 3 1.68 3 1 C2.01 0.67 1.02 0.34 0 0 Z " fill="#241B14" transform="translate(113,194)"/>
<path d="M0 0 C0.99 0.33 1.98 0.66 3 1 C3.1799928 6.21979128 2.97094808 10.07262981 1 15 C0.67 15 0.34 15 0 15 C0 10.05 0 5.1 0 0 Z " fill="#1F1913" transform="translate(153,210)"/>
<path d="M0 0 C6.93 0.495 6.93 0.495 14 1 C12.68 1.33 11.36 1.66 10 2 C10 2.66 10 3.32 10 4 C6.7 3.67 3.4 3.34 0 3 C0 2.01 0 1.02 0 0 Z " fill="#24211B" transform="translate(67,237)"/>
<path d="M0 0 C0.33 0 0.66 0 1 0 C1.98248524 4.0527516 2.08159574 7.83861737 2 12 C1.01 12 0.02 12 -1 12 C-2.11658501 7.31034294 -1.80619523 4.46236469 0 0 Z " fill="#C7C4AC" transform="translate(121,140)"/>
<path d="M0 0 C0.96661363 3.12180401 0.98988909 5.52083795 0.5625 8.75 C0.40974609 9.94882813 0.40974609 9.94882813 0.25390625 11.171875 C0.12822266 12.07679688 0.12822266 12.07679688 0 13 C-0.99 12.34 -1.98 11.68 -3 11 C-2.88590407 9.54077307 -2.75834456 8.08259402 -2.625 6.625 C-2.55539063 5.81289062 -2.48578125 5.00078125 -2.4140625 4.1640625 C-2 2 -2 2 0 0 Z " fill="#1E130C" transform="translate(25,173)"/>
<path d="M0 0 C1.15957207 3.47871621 0.77456651 4.34219645 -0.4375 7.6875 C-0.72496094 8.49574219 -1.01242188 9.30398437 -1.30859375 10.13671875 C-1.53675781 10.75160156 -1.76492187 11.36648437 -2 12 C-2.99 12 -3.98 12 -5 12 C-4.55149342 10.18504338 -4.09090429 8.37306866 -3.625 6.5625 C-3.36976562 5.55316406 -3.11453125 4.54382813 -2.8515625 3.50390625 C-2 1 -2 1 0 0 Z " fill="#151311" transform="translate(41,64)"/>
<path d="M0 0 C3.96 0 7.92 0 12 0 C12 0.66 12 1.32 12 2 C6.06 2.495 6.06 2.495 0 3 C0 2.01 0 1.02 0 0 Z " fill="#0C0906" transform="translate(138,239)"/>
<path d="M0 0 C0.66 0 1.32 0 2 0 C3.32 3.63 4.64 7.26 6 11 C5.01 11 4.02 11 3 11 C2.49384702 9.73160474 1.99530901 8.46016898 1.5 7.1875 C1.2215625 6.47980469 0.943125 5.77210938 0.65625 5.04296875 C0 3 0 3 0 0 Z " fill="#0B0806" transform="translate(12,170)"/>
<path d="M0 0 C1.98 0.495 1.98 0.495 4 1 C3.34 1 2.68 1 2 1 C2 4.63 2 8.26 2 12 C-1 9 -1 9 -1.07421875 6.73828125 C-0.94660156 5.93777344 -0.81898437 5.13726562 -0.6875 4.3125 C-0.56761719 3.50425781 -0.44773438 2.69601563 -0.32421875 1.86328125 C-0.21722656 1.24839844 -0.11023437 0.63351563 0 0 Z " fill="#27201A" transform="translate(44,154)"/>
<path d="M0 0 C0.33 0.66 0.66 1.32 1 2 C0.328125 3.91015625 0.328125 3.91015625 -0.75 6.0625 C-1.09546875 6.77535156 -1.4409375 7.48820313 -1.796875 8.22265625 C-3 10 -3 10 -6 11 C-3.76687117 3.98159509 -3.76687117 3.98159509 -2 1 C-1.34 0.67 -0.68 0.34 0 0 Z " fill="#060505" transform="translate(18,136)"/>
<path d="M0 0 C0.33 0 0.66 0 1 0 C0.85831863 1.43791516 0.71148957 2.8753237 0.5625 4.3125 C0.48128906 5.11300781 0.40007813 5.91351563 0.31640625 6.73828125 C0 9 0 9 -1 12 C-1.66 12 -2.32 12 -3 12 C-2.14285714 3.42857143 -2.14285714 3.42857143 0 0 Z " fill="#060504" transform="translate(37,75)"/>
<path d="M0 0 C6.4 0.49230769 6.4 0.49230769 9.4375 3.0625 C10.2109375 4.0215625 10.2109375 4.0215625 11 5 C10.01 5.33 9.02 5.66 8 6 C7.34 5.34 6.68 4.68 6 4 C5.34 3.67 4.68 3.34 4 3 C2 2 2 2 0 0 Z " fill="#252221" transform="translate(94,9)"/>
<path d="M0 0 C0.66 0.33 1.32 0.66 2 1 C2 3.64 2 6.28 2 9 C1.01 9.495 1.01 9.495 0 10 C-2.21538462 4.58461538 -2.21538462 4.58461538 -1.125 1.625 C-0.75375 1.08875 -0.3825 0.5525 0 0 Z " fill="#F0ECD0" transform="translate(119,136)"/>
<path d="M0 0 C2.39763185 2.39763185 2.34280586 3.33273498 2.625 6.625 C2.69976562 7.44226563 2.77453125 8.25953125 2.8515625 9.1015625 C2.92503906 10.04128906 2.92503906 10.04128906 3 11 C2.34 11 1.68 11 1 11 C0.8046875 8.94921875 0.609375 6.8984375 0.4140625 4.84765625 C0.27742187 4.23792969 0.14078125 3.62820312 0 3 C-0.66 2.67 -1.32 2.34 -2 2 C-1.34 1.34 -0.68 0.68 0 0 Z " fill="#060504" transform="translate(150,120)"/>
<path d="M0 0 C0.33 0 0.66 0 1 0 C1 2.64 1 5.28 1 8 C0.34 8 -0.32 8 -1 8 C-1.33 8.99 -1.66 9.98 -2 11 C-2.05399736 9.54207116 -2.09279177 8.08357288 -2.125 6.625 C-2.15980469 5.40683594 -2.15980469 5.40683594 -2.1953125 4.1640625 C-2 2 -2 2 0 0 Z " fill="#19100A" transform="translate(119,90)"/>
<path d="M0 0 C0.33 0 0.66 0 1 0 C1.33 3.63 1.66 7.26 2 11 C1.01 11.66 0.02 12.32 -1 13 C-1.0272415 11.58344207 -1.04650467 10.16672955 -1.0625 8.75 C-1.07410156 7.96109375 -1.08570313 7.1721875 -1.09765625 6.359375 C-1.00385306 4.09308998 -0.63241063 2.1711105 0 0 Z " fill="#282119" transform="translate(153,158)"/>
<path d="M0 0 C0.66 0.33 1.32 0.66 2 1 C-0.83430453 4.2542015 -2.68607774 5.5206753 -7 6 C-4.74259377 3.66475218 -2.7194239 1.81294927 0 0 Z " fill="#070504" transform="translate(147,246)"/>
<path d="M0 0 C2.64 0 5.28 0 8 0 C7.01 1.485 7.01 1.485 6 3 C2.875 3.1875 2.875 3.1875 0 3 C0 2.01 0 1.02 0 0 Z " fill="#2E2E28" transform="translate(86,229)"/>
<path d="M0 0 C1.76462683 3.08809695 2 4.23312136 2 8 C1.34 8 0.68 8 0 8 C0 9.65 0 11.3 0 13 C-0.33 13 -0.66 13 -1 13 C-1.0272415 11.58344207 -1.04650467 10.16672955 -1.0625 8.75 C-1.07410156 7.96109375 -1.08570313 7.1721875 -1.09765625 6.359375 C-1.00385306 4.09308998 -0.63241063 2.1711105 0 0 Z " fill="#DCD8BE" transform="translate(151,167)"/>
<path d="M0 0 C0.99 0 1.98 0 3 0 C3 2.31 3 4.62 3 7 C2.01 7 1.02 7 0 7 C0 4.69 0 2.38 0 0 Z " fill="#120C07" transform="translate(84,20)"/>
<path d="M0 0 C-0.33 2.64 -0.66 5.28 -1 8 C-1.99 8 -2.98 8 -4 8 C-3.74438677 5.6568787 -3.40729228 3.32156597 -3 1 C-1 0 -1 0 0 0 Z " fill="#1F1A16" transform="translate(14,146)"/>
<path d="M0 0 C0.99 0 1.98 0 3 0 C2.1875 2.4375 2.1875 2.4375 1 5 C0.01 5.33 -0.98 5.66 -2 6 C-1.125 1.125 -1.125 1.125 0 0 Z " fill="#EFEBCF" transform="translate(74,130)"/>
<path d="M0 0 C0.33 0.99 0.66 1.98 1 3 C-0.3125 5.1875 -0.3125 5.1875 -2 7 C-2.66 7 -3.32 7 -4 7 C-3.39816251 4.97954558 -2.72693904 2.97888961 -2 1 C-1.34 0.67 -0.68 0.34 0 0 Z " fill="#1A1614" transform="translate(159,232)"/>
<path d="M0 0 C-0.33 0.99 -0.66 1.98 -1 3 C-4.0625 4.1875 -4.0625 4.1875 -7 5 C-6 2 -6 2 -4.0625 0.8125 C-2 0 -2 0 0 0 Z " fill="#0B0B0A" transform="translate(124,227)"/>
<path d="M0 0 C0 0.66 0 1.32 0 2 C-4.455 2.495 -4.455 2.495 -9 3 C-7.14340032 -0.71319936 -3.69365381 -0.09982848 0 0 Z " fill="#070707" transform="translate(102,228)"/>
<path d="M0 0 C0.33 0 0.66 0 1 0 C1.33 2.64 1.66 5.28 2 8 C1.01 8.33 0.02 8.66 -1 9 C-1.33 6.69 -1.66 4.38 -2 2 C-1.34 2 -0.68 2 0 2 C0 1.34 0 0.68 0 0 Z " fill="#27201B" transform="translate(153,129)"/>
<path d="M0 0 C0.33 0.99 0.66 1.98 1 3 C-0.3125 5.1875 -0.3125 5.1875 -2 7 C-2.66 7 -3.32 7 -4 7 C-3.39816251 4.97954558 -2.72693904 2.97888961 -2 1 C-1.34 0.67 -0.68 0.34 0 0 Z " fill="#1A1612" transform="translate(74,126)"/>
<path d="M0 0 C0.33 0.99 0.66 1.98 1 3 C-0.3125 5.1875 -0.3125 5.1875 -2 7 C-2.66 7 -3.32 7 -4 7 C-3.39816251 4.97954558 -2.72693904 2.97888961 -2 1 C-1.34 0.67 -0.68 0.34 0 0 Z " fill="#1A1714" transform="translate(172,89)"/>
<path d="M0 0 C0.33 0.99 0.66 1.98 1 3 C-0.3125 5.1875 -0.3125 5.1875 -2 7 C-2.66 7 -3.32 7 -4 7 C-3.39816251 4.97954558 -2.72693904 2.97888961 -2 1 C-1.34 0.67 -0.68 0.34 0 0 Z " fill="#1B1817" transform="translate(47,50)"/>
<path d="M0 0 C1.2077558 3.62326739 0.54311128 4.64146369 -1 8 C-1.66 7.67 -2.32 7.34 -3 7 C-2.25 2.25 -2.25 2.25 0 0 Z " fill="#060402" transform="translate(74,138)"/>
</svg>
