<?xml version="1.0" encoding="UTF-8"?>
<svg version="1.1" xmlns="http://www.w3.org/2000/svg" width="164" height="308">
<path d="M0 0 C54.12 0 108.24 0 164 0 C164 101.64 164 203.28 164 308 C109.88 308 55.76 308 0 308 C0 206.36 0 104.72 0 0 Z " fill="#F1ECE9" transform="translate(0,0)"/>
<path d="M0 0 C1.68889872 1.3050581 3.3603279 2.63360658 5 4 C6.485 3.505 6.485 3.505 8 3 C11.80757438 2.7392884 15.62188653 2.76176419 19.4375 2.75 C20.5217627 2.74605225 21.60602539 2.74210449 22.72314453 2.73803711 C29.56155873 2.78787379 35.50922651 3.27961057 42.0234375 5.44140625 C44.05244255 6.25444688 44.05244255 6.25444688 46 5 C50.973766 4.5026234 53.06308498 4.45488581 57.4375 7 C60.36907461 10.43208735 60.44114093 11.82362727 60.6796875 16.1015625 C61.21963733 19.30175296 63.68805971 20.84218906 66 23 C71.93243485 31.19892919 75.89852665 40.71499919 76.79370117 50.84692383 C77.05266022 53.54959824 77.49253787 56.20645595 77.92578125 58.88671875 C79.01278324 65.86392497 79.81703376 72.8542068 80.5625 79.875 C81.63060466 89.95658795 81.63060466 89.95658795 83 100 C57.6246866 113.47516643 31.64139902 121.13056386 2.8125 121.25 C1.58724609 121.270625 0.36199219 121.29125 -0.90039062 121.3125 C-15.65488215 121.37472242 -29.77976856 119.08972172 -41.00244141 109.046875 C-44.26532638 105.70343481 -46.49625057 101.9430239 -48.75 97.875 C-49.22026611 97.0411377 -49.69053223 96.20727539 -50.17504883 95.34814453 C-55.50412375 85.63630524 -60.07967909 75.16090045 -57.52734375 63.91796875 C-55.61766401 57.93735496 -52.26236735 52.86906463 -46.75 49.7109375 C-40.99084813 47.07764108 -40.99084813 47.07764108 -37.90625 46.8359375 C-35.63197295 46.08383971 -35.63197295 46.08383971 -34.5078125 42.9375 C-34.03525126 41.62914015 -33.57497603 40.3162983 -33.125 39 C-29.98300091 30.55923959 -26.32736598 24.08877833 -19.6875 17.875 C-15.99910006 14.36091008 -15.38058802 12.13793826 -15 7 C-13.33937399 3.96506281 -11.90135148 1.71486497 -9.1875 -0.4375 C-5.82536233 -1.30204969 -3.35188798 -0.82327073 0 0 Z " fill="#F1ECE9" transform="translate(62,1)"/>
<path d="M0 0 C4.92215884 7.38323826 5.06077828 18.12620529 5.87304688 26.77807617 C7.19797087 40.88008163 9.40081693 54.69386597 11.9375 68.625 C12.11469574 69.60018585 12.29189148 70.5753717 12.47445679 71.58010864 C13.17318996 75.42344053 13.8727612 79.26661824 14.57389832 83.10951233 C15.96407151 90.74814417 17.28717166 98.39336485 18.5 106.0625 C18.65976318 107.02816895 18.81952637 107.99383789 18.98413086 108.98876953 C20.01844363 115.68757486 20.15938162 122.22849474 20 129 C19.67 129 19.34 129 19 129 C18.67 127.02 18.34 125.04 18 123 C14.93583942 123.75852087 14.93583942 123.75852087 12 126 C10.73220447 129.32120091 10.37930177 132.73612115 9.9375 136.25 C9.62913635 138.24865327 9.31268604 140.24607514 8.98828125 142.2421875 C8.82924316 143.2228418 8.67020508 144.20349609 8.50634766 145.21386719 C6.83766774 154.39562957 4.03567427 164.46815918 -3 171 C-7.44651159 173.77101447 -11.91764204 173.61812462 -17 173 C-23.84120166 170.84023497 -27.35716759 167.10312788 -30.6875 160.8125 C-33.88734367 152.743329 -33.10896352 143.51507961 -33 135 C-33.86262451 135.21221191 -33.86262451 135.21221191 -34.74267578 135.42871094 C-43.28255214 137.26966174 -51.6601942 137.30467819 -60.35107422 137.26074219 C-62.86320294 137.25005021 -65.37461208 137.26067323 -67.88671875 137.2734375 C-77.10655148 137.28128257 -85.92102924 136.78520452 -95 135 C-96.01521729 134.80849365 -97.03043457 134.6169873 -98.07641602 134.41967773 C-110.42794315 131.96083442 -121.85219226 125.2484341 -132 118 C-132.66 121.96 -133.32 125.92 -134 130 C-134.33 130 -134.66 130 -135 130 C-134.57220732 122.16659216 -132.84289965 115.09267848 -130.5 107.625 C-130.14977783 106.49682861 -129.79955566 105.36865723 -129.4387207 104.20629883 C-125.81032815 92.86166885 -121.53212625 81.29513304 -115.21875 71.1328125 C-113.72079175 68.99741391 -113.72079175 68.99741391 -114.3125 66.1875 C-114.539375 65.465625 -114.76625 64.74375 -115 64 C-113.515 64.99 -113.515 64.99 -112 66 C-112 66.66 -112 67.32 -112 68 C-108.259231 69.5505418 -104.48992877 70.85528353 -100.625 72.0625 C-99.00464844 72.57490234 -99.00464844 72.57490234 -97.3515625 73.09765625 C-74.487105 79.25347173 -47.21230788 75.29727318 -25 68 C-24.33790527 67.78472656 -23.67581055 67.56945312 -22.99365234 67.34765625 C-12.62817716 63.9461469 -2.7853152 59.8143181 7 55 C6.91959473 54.4330542 6.83918945 53.8661084 6.75634766 53.28198242 C5.21120719 42.32823701 3.78714544 31.38687702 2.70410156 20.37744141 C2.20527021 15.48068558 1.49906353 10.70756928 0.3671875 5.91015625 C0 4 0 4 0 0 Z " fill="#66635E" transform="translate(137,46)"/>
<path d="M0 0 C3.54095108 2.81460214 5.35792849 5.00019859 6.0625 9.4375 C6.27473996 12.97483259 5.94908866 14.10370829 4.3125 17.4375 C2.19475414 19.78419136 0.96890206 21.04228966 -2 22 C-2.99 22 -3.98 22 -5 22 C-5.36351562 23.28583984 -5.36351562 23.28583984 -5.734375 24.59765625 C-7.13142116 28.35329579 -8.94142705 31.16702165 -11.25 34.4375 C-11.84953491 35.29661987 -11.84953491 35.29661987 -12.46118164 36.1730957 C-14.61199213 39.21449305 -16.85431045 42.00863676 -19.4375 44.6875 C-26.1539976 52.33830369 -24.5870482 65.84711728 -24.95361328 75.43017578 C-25.03306741 77.42033508 -25.13729597 79.40945666 -25.2421875 81.3984375 C-25.31735596 83.15679932 -25.31735596 83.15679932 -25.39404297 84.95068359 C-26.11071947 88.55716605 -27.15570233 89.74470318 -30 92 C-42.98275357 98.75633094 -61.09301525 101.60426823 -75.3046875 98.2109375 C-83.34255206 95.41793947 -83.34255206 95.41793947 -86 92 C-86.1875 88.8125 -86.1875 88.8125 -86 86 C-86.556875 86.20496094 -87.11375 86.40992188 -87.6875 86.62109375 C-88.450625 86.89050781 -89.21375 87.15992188 -90 87.4375 C-90.7425 87.70433594 -91.485 87.97117187 -92.25 88.24609375 C-103.6804971 91.37973855 -119.17790487 92.12625559 -130 87 C-131.73046875 85.578125 -131.73046875 85.578125 -133 84 C-132.85381026 80.56454113 -132.50750286 78.62028127 -130.3125 75.9375 C-129.879375 75.298125 -129.44625 74.65875 -129 74 C-129.78885829 71.60653328 -129.78885829 71.60653328 -131 69 C-133.86219238 61.90042126 -135.24633664 55.39331823 -135.8125 47.8125 C-136.36932277 41.20039893 -137.30821003 37.35156587 -141.984375 32.41015625 C-144.71124886 29.14953383 -146.49126012 25.60651131 -148.375 21.8125 C-148.89344482 20.79518799 -148.89344482 20.79518799 -149.42236328 19.75732422 C-151.34461628 15.84262088 -152.52209979 12.38985475 -153 8 C-152.33355469 8.37511719 -151.66710937 8.75023437 -150.98046875 9.13671875 C-137.29886364 16.73335823 -123.53262511 22.50049711 -108 25 C-106.9584375 25.185625 -105.916875 25.37125 -104.84375 25.5625 C-69.97182722 30.9274112 -33.96317736 26.20616199 -4 7 C-1.77810176 4.77810176 -1.07401108 2.91517292 0 0 Z " fill="#65625D" transform="translate(157,209)"/>
<path d="M0 0 C34.32 0 68.64 0 104 0 C104 101.64 104 203.28 104 308 C82.88 308 61.76 308 40 308 C40 307.67 40 307.34 40 307 C40.79921875 306.90203125 41.5984375 306.8040625 42.421875 306.703125 C52.17635067 305.37505085 60.8955878 302.65700239 70 299 C70.07516846 297.62448975 70.07516846 297.62448975 70.15185547 296.22119141 C70.34374114 292.77290575 70.54209052 289.32511162 70.74462891 285.87744141 C70.83049834 284.39386206 70.91389438 282.91013717 70.99462891 281.42626953 C72.28018601 257.8894648 72.28018601 257.8894648 78.625 251.25 C82.57428464 246.95103168 85.44188377 242.67844134 88.125 237.5 C91.21020082 231.63498625 93.79935421 229.35196909 100 227 C102.00059576 224.08430523 102.22174052 221.96371687 101.8125 218.5 C101.73644531 217.7471875 101.66039062 216.994375 101.58203125 216.21875 C101.16458015 213.92113651 101.16458015 213.92113651 99.48681641 212.35742188 C97.38429524 209.02376927 97.5963545 205.8802589 97.62890625 202.0625 C97.61479095 200.4431105 97.60011952 198.82372577 97.58496094 197.2043457 C97.58202026 196.3555484 97.57907959 195.5067511 97.5760498 194.63223267 C97.48572531 177.08547989 96.08199536 160.29582203 93 143 C92.60025754 140.69270883 92.200518 138.38541716 91.80078125 136.078125 C90.35037822 127.81272781 88.83626977 119.55911625 87.32226562 111.30517578 C85.08270635 99.0212894 82.8948515 86.83388148 81.9375 74.375 C80.58696573 57.05183115 77.83656704 37.04862788 66.1015625 23.41796875 C65 22 65 22 65 20 C64.01 19.67 63.02 19.34 62 19 C61.938125 17.7625 61.87625 16.525 61.8125 15.25 C61.39056822 12.03419561 61.08368929 11.10144157 58.9375 8.5 C54.67604745 6.32393912 50.70102193 6.16427283 46.03369141 7.60839844 C43.41818731 8.11203212 42.00557261 7.50574444 39.5234375 6.578125 C33.51007645 4.64060903 27.89574045 4.62598041 21.625 4.75 C20.02591797 4.75773438 20.02591797 4.75773438 18.39453125 4.765625 C13.03537434 4.73487639 13.03537434 4.73487639 7.77587891 5.57275391 C6 6 6 6 4.296875 5.0390625 C2.84599888 3.71275656 1.42192805 2.35729495 0 1 C0 0.67 0 0.34 0 0 Z " fill="#FEFEFE" transform="translate(60,0)"/>
<path d="M0 0 C18.15 0 36.3 0 55 0 C53.35 1.32 51.7 2.64 50 4 C47.53269216 7.92944326 47.53269216 7.92944326 47.2109375 12.4140625 C46.90884408 16.11750409 45.21224967 17.0514634 42.4375 19.4375 C35.7459673 25.77883933 32.04523872 33.08785244 29.03515625 41.7890625 C28.20279706 44.14421707 27.51253063 46.00934418 26 48 C23.51287515 49.14226705 21.13686377 49.7473481 18.46875 50.34375 C13.35592224 51.70285611 10.36826486 55.10727869 7.6875 59.5625 C3.41501476 68.26571067 4.57721264 76.42205577 7.53515625 85.390625 C11.302689 94.67382569 16.37449323 103.93517484 23.19921875 111.32421875 C24 113 24 113 23.3671875 115.26171875 C20.61210314 120.77975914 20.61210314 120.77975914 19.4362793 123.11206055 C10.12987954 141.86817544 3.88534572 162.28733965 1 183 C0.67 183 0.34 183 0 183 C0 122.61 0 62.22 0 0 Z " fill="#FEFEFE" transform="translate(0,0)"/>
<path d="M0 0 C0.33 0 0.66 0 1 0 C1.15855469 0.78761719 1.31710938 1.57523438 1.48046875 2.38671875 C4.39638155 15.99968182 8.88301458 30.46375182 18.65234375 40.80859375 C21.63418954 44.8621179 21.81767529 47.72694963 22.0625 52.625 C22.74141613 61.21556372 24.54184489 68.79857461 28.24609375 76.63671875 C28.49488281 77.41660156 28.74367188 78.19648438 29 79 C27.69593116 81.01920337 26.36176581 83.01924973 25 85 C24.65892639 87.71242433 24.65892639 87.71242433 26 90 C32.05695663 93.76877302 37.51036632 94.19401815 44.5 94.1875 C45.30010498 94.18741943 46.10020996 94.18733887 46.92456055 94.18725586 C53.43387408 94.12515033 59.63269832 93.3737328 66 92 C67.66648913 91.66578019 69.33310353 91.33218224 71 91 C71.165 92.0725 71.33 93.145 71.5 94.25 C72.19394271 96.73914231 72.6579336 97.75211488 74.7734375 99.28515625 C76.82155429 100.2863732 78.88246952 101.15698315 81 102 C82.98 102.99 82.98 102.99 85 104 C56.95 104 28.9 104 0 104 C0 69.68 0 35.36 0 0 Z " fill="#FEFDFD" transform="translate(0,204)"/>
<path d="M0 0 C5.04084858 1.59419063 8.00667586 4.94715341 10.5859375 9.38671875 C13.2216691 15.2206184 13.12314287 21.01328072 11.0859375 27.01171875 C8.19337435 31.15772593 5.85111262 34.11977438 0.84375 35.21875 C-3.90158112 35.52885522 -7.04124446 35.0318811 -10.7890625 32.01171875 C-14.60603664 28.14983903 -15.85242507 24.89454705 -16.1640625 19.51171875 C-15.99349467 12.70037676 -13.40992893 7.06105269 -9.6015625 1.51171875 C-6.0601756 -0.77050836 -4.07160322 -0.73721719 0 0 Z " fill="#66635E" transform="translate(71.7890625,37.30078125)"/>
<path d="M0 0 C1.68889872 1.3050581 3.3603279 2.63360658 5 4 C5.99 3.67 6.98 3.34 8 3 C11.80757438 2.7392884 15.62188653 2.76176419 19.4375 2.75 C20.5217627 2.74605225 21.60602539 2.74210449 22.72314453 2.73803711 C29.56155873 2.78787379 35.50922651 3.27961057 42.0234375 5.44140625 C44.05244255 6.25444688 44.05244255 6.25444688 46 5 C50.93378393 4.50662161 53.06919235 4.47536296 57.4375 6.9375 C60.71943022 10.85980685 61.43949261 13.93667887 61 19 C59.5625 22.0625 59.5625 22.0625 58 24 C50.55463377 22.93637625 45.24134903 20.54553447 40 15 C39.125 13.0234375 39.125 13.0234375 39 11 C39.9375 8.75 39.9375 8.75 41 7 C23.26101306 2.44319601 5.7926762 4.03464873 -10.3828125 12.4375 C-13.52425077 14.31298553 -15.68483623 16.1887297 -18 19 C-18.66 18.67 -19.32 18.34 -20 18 C-19.360625 17.29875 -18.72125 16.5975 -18.0625 15.875 C-15.7793562 12.69243592 -15.61977428 10.79611745 -15 7 C-13.33233341 4.00970129 -11.87792285 1.69628364 -9.1875 -0.4375 C-5.82536233 -1.30204969 -3.35188798 -0.82327073 0 0 Z " fill="#615E5A" transform="translate(62,1)"/>
<path d="M0 0 C0.33 1.32 0.66 2.64 1 4 C4.465 3.505 4.465 3.505 8 3 C11.34035946 6.85290139 11.44966964 9.4488175 11.2890625 14.3984375 C10.7312658 19.41860777 9.12372084 23.33522839 6.3125 27.5 C2.71175795 29.83561647 0.2519524 29.47243916 -4 29 C-5.9375 28 -5.9375 28 -7 26 C-9.29841878 18.24283662 -6.31017701 12.10233035 -3 5 C-2.02786219 3.31692963 -1.03697765 1.64391457 0 0 Z " fill="#625F5B" transform="translate(35,27)"/>
<path d="M0 0 C3 1 3 1 5 3 C5.59676803 5.70437441 6.08595421 8.35343273 6.5078125 11.0859375 C6.63815887 11.89809723 6.76850525 12.71025696 6.90280151 13.54702759 C7.17740416 15.27305709 7.44780413 16.9997596 7.71435547 18.72705078 C8.11832881 21.3319823 8.54055305 23.93346705 8.96484375 26.53515625 C10.37660618 35.40772206 11.47095232 43.98365188 11 53 C10.67 53 10.34 53 10 53 C9.67 51.02 9.34 49.04 9 47 C8.05125 47.495 7.1025 47.99 6.125 48.5 C3 50 3 50 1 50 C0.67 33.5 0.34 17 0 0 Z " fill="#585652" transform="translate(146,122)"/>
<path d="M0 0 C1.68889872 1.3050581 3.3603279 2.63360658 5 4 C5.99 3.67 6.98 3.34 8 3 C9.62719482 2.91856145 11.25751719 2.8924698 12.88671875 2.90234375 C13.82451172 2.90556641 14.76230469 2.90878906 15.72851562 2.91210938 C17.19321289 2.92467773 17.19321289 2.92467773 18.6875 2.9375 C19.67556641 2.94201172 20.66363281 2.94652344 21.68164062 2.95117188 C24.12115474 2.96295697 26.56054689 2.97940989 29 3 C29 3.33 29 3.66 29 4 C27.13408203 4.05607422 27.13408203 4.05607422 25.23046875 4.11328125 C10.74658746 4.64206018 -5.31798301 6.00474582 -16.25 16.875 C-16.8275 17.57625 -17.405 18.2775 -18 19 C-18.66 18.67 -19.32 18.34 -20 18 C-19.360625 17.29875 -18.72125 16.5975 -18.0625 15.875 C-15.7793562 12.69243592 -15.61977428 10.79611745 -15 7 C-13.33233341 4.00970129 -11.87792285 1.69628364 -9.1875 -0.4375 C-5.82536233 -1.30204969 -3.35188798 -0.82327073 0 0 Z " fill="#5B5855" transform="translate(62,1)"/>
<path d="M0 0 C3.54095108 2.81460214 5.35792849 5.00019859 6.0625 9.4375 C6.27473996 12.97483259 5.94908866 14.10370829 4.3125 17.4375 C2.19475414 19.78419136 0.96890206 21.04228966 -2 22 C-2.99 22 -3.98 22 -5 22 C-4.35259036 17.15687791 -3.51971256 12.40745191 -2.5 7.625 C-2.2421875 6.40039062 -1.984375 5.17578125 -1.71875 3.9140625 C-1 1 -1 1 0 0 Z " fill="#53514D" transform="translate(157,209)"/>
<path d="M0 0 C4.78756196 0.368274 8.05438736 1.25002755 12 4 C11.67 5.65 11.34 7.3 11 9 C5.28341664 9.45732667 2.51350747 8.52273754 -2 5 C-1.125 1.125 -1.125 1.125 0 0 Z " fill="#080808" transform="translate(27,60)"/>
<path d="M0 0 C0.598125 0.185625 1.19625 0.37125 1.8125 0.5625 C4.16408762 1.22093687 4.16408762 1.22093687 7 0 C8.62719482 -0.08143855 10.25751719 -0.1075302 11.88671875 -0.09765625 C12.82451172 -0.09443359 13.76230469 -0.09121094 14.72851562 -0.08789062 C16.19321289 -0.07532227 16.19321289 -0.07532227 17.6875 -0.0625 C18.67556641 -0.05798828 19.66363281 -0.05347656 20.68164062 -0.04882812 C23.12115474 -0.03704303 25.56054689 -0.02059011 28 0 C28 0.33 28 0.66 28 1 C26.73285156 1.06058594 25.46570313 1.12117187 24.16015625 1.18359375 C22.46093036 1.26808565 20.761712 1.35272919 19.0625 1.4375 C17.81629883 1.49647461 17.81629883 1.49647461 16.54492188 1.55664062 C10.99634986 1.83730769 5.51628363 2.33760065 0 3 C0 2.01 0 1.02 0 0 Z " fill="#514F4D" transform="translate(63,4)"/>
<path d="M0 0 C0.33 0 0.66 0 1 0 C1.56638908 4.81430721 -0.17438373 7.20307814 -3 11 C-3.66 10.34 -4.32 9.68 -5 9 C-3.35 6.03 -1.7 3.06 0 0 Z " fill="#A8A5A3" transform="translate(35,27)"/>
<path d="M0 0 C0.99 0.33 1.98 0.66 3 1 C-0.465 3.97 -0.465 3.97 -4 7 C-2.92598892 4.08482708 -2.22189824 2.22189824 0 0 Z " fill="#6A6762" transform="translate(36,31)"/>
</svg>
